#!OML:ASF E:\Mandelcareful walks\Project 1\Capture day 1\Session 1\Subject1.ASF
:FULLY-SPECIFIED
:DEGREES
320
root 6.61568 15.5624 0.382445 -133.803 -84.3195 137.574
lowerback 19.1372 1.35632 2.83585
upperback 7.38444 1.712 -1.43751
thorax -2.60852 0.702495 -3.48186
lowerneck -19.4534 17.3696 17.2678
upperneck 20.9712 23.6729 -16.1859
head 14.6391 10.01 -4.06073
rclavicle 1.59028e-015 1.51076e-014
rhumerus 56.3014 41.142 -46.283
rradius 113.817
rwrist -65.6967
rhand 4.37013 -22.3252
rfingers 7.12502
rthumb 29.769 -49.954
lclavicle 1.59028e-015 1.51076e-014
lhumerus -14.5554 -18.7767 84.7303
lradius 52.8416
lwrist 20.5003
lhand -24.4005 -13.4242
lfingers 7.12502
lthumb 2.09052 16.5453
rfemur -26.7715 -8.84568 3.42926
rtibia 51.1106
rfoot -21.4498 -10.0256
rtoes -13.1365
lfemur -30.6505 12.4119 -11.4278
ltibia 54.2581
lfoot -20.6214 1.99946
ltoes -13.398
321
root 6.61077 15.559 0.382614 -130.42 -84.4405 134.165
lowerback 19.3306 1.38619 2.57629
upperback 7.20884 1.72019 -1.47368
thorax -2.9049 0.699978 -3.38358
lowerneck -19.3228 17.1261 17.0914
upperneck 21.1102 23.3179 -15.9146
head 14.5291 9.88208 -4.04376
rclavicle -2.52457e-014 1.74931e-014
rhumerus 55.483 41.3879 -46.7205
rradius 113.926
rwrist -65.3799
rhand 4.41404 -22.347
rfingers 7.12502
rthumb 29.8109 -49.9683
lclavicle -2.52457e-014 1.74931e-014
lhumerus -14.8675 -18.7441 84.826
lradius 52.9264
lwrist 20.6321
lhand -24.6597 -13.8388
lfingers 7.12502
lthumb 1.84025 16.133
rfemur -26.6168 -9.11248 3.21687
rtibia 51.2103
rfoot -21.5255 -10.0361
rtoes -12.8168
lfemur -30.7604 12.3254 -11.6287
ltibia 54.4292
lfoot -20.731 1.75421
ltoes -13.1229
322
root 6.66909 15.5381 0.361107 -138.441 -85.1367 142.626
lowerback 19.9313 1.46063 3.06899
upperback 6.72059 1.9674 -1.21254
thorax -3.70947 0.811419 -3.46799
lowerneck -19.4432 16.808 16.731
upperneck 21.5745 22.7899 -15.2301
head 14.4784 9.68638 -3.87696
rclavicle -6.36111e-015 6.36111e-015
rhumerus 54.3317 41.4476 -47.3659
rradius 114.127
rwrist -65.2592
rhand 4.36743 -22.2329
rfingers 7.12502
rthumb 29.7664 -49.8622
lclavicle -6.36111e-015 6.36111e-015
lhumerus -15.291 -18.6602 84.8678
lradius 53.2312
lwrist 20.8233
lhand -24.698 -13.7998
lfingers 7.12502
lthumb 1.8032 16.1723
rfemur -27.5414 -8.3352 4.65789
rtibia 51.3955
rfoot -21.3426 -10.8029
rtoes -12.1137
lfemur -31.8289 12.7661 -10.431
ltibia 54.7155
lfoot -20.2787 1.47256
ltoes -12.8633
323
root 6.68493 15.5397 0.353493 -138.71 -85.4712 143.094
lowerback 19.9291 1.46139 3.12457
upperback 6.62786 1.98546 -1.2608
thorax -3.80235 0.821 -3.55741
lowerneck -20.1297 16.3162 15.969
upperneck 22.2797 21.9255 -14.0503
head 14.4532 9.33561 -3.51919
rclavicle -1.59028e-014 9.54166e-015
rhumerus 53.2112 41.029 -47.9485
rradius 114.441
rwrist -65.2605
rhand 4.29168 -22.2929
rfingers 7.12502
rthumb 29.6941 -49.9351
lclavicle -1.59028e-014 9.54166e-015
lhumerus -15.2567 -18.5248 84.7125
lradius 53.4047
lwrist 20.9372
lhand -24.4668 -13.4052
lfingers 7.12502
lthumb 2.02649 16.5649
rfemur -27.7698 -8.32492 4.99274
rtibia 51.4399
rfoot -21.3751 -10.9657
rtoes -12.0742
lfemur -32.3097 12.8369 -10.2039
ltibia 54.8016
lfoot -20.1123 1.29667
ltoes -12.9189
324
root 6.6748 15.5483 0.354985 -132.702 -85.6975 137.134
lowerback 19.453 1.39631 2.94372
upperback 6.83987 1.83739 -1.44309
thorax -3.34136 0.759751 -3.59646
lowerneck -21.3469 15.6348 14.7306
upperneck 23.2226 20.7661 -12.4333
head 14.4828 8.84425 -2.96637
rclavicle 9.93923e-016 -4.37326e-015
rhumerus 52.111 40.3821 -48.3653
rradius 114.864
rwrist -65.195
rhand 4.15777 -22.3663
rfingers 7.12502
rthumb 29.5663 -50.0313
lclavicle 9.93923e-016 -4.37326e-015
lhumerus -14.8849 -18.2866 84.4796
lradius 53.475
lwrist 20.7224
lhand -24.0528 -12.6251
lfingers 7.12502
lthumb 2.42634 17.3409
rfemur -27.5403 -8.85188 4.71671
rtibia 51.3787
rfoot -21.4851 -10.8185
rtoes -12.265
lfemur -32.4025 12.6362 -10.5114
ltibia 54.7335
lfoot -20.0723 1.13763
ltoes -13.0429
325
root 6.65091 15.555 0.3615 -125.013 -85.7061 129.343
lowerback 19.0654 1.36496 2.53046
upperback 7.02981 1.69563 -1.65258
thorax -2.95749 0.695827 -3.53859
lowerneck -22.5747 14.7271 13.3436
upperneck 24.4201 19.2863 -10.5516
head 14.5715 8.24078 -2.35641
rclavicle -3.37934e-015 -1.59028e-015
rhumerus 50.415 39.8559 -48.9732
rradius 115.368
rwrist -64.9115
rhand 3.84939 -22.3073
rfingers 7.12502
rthumb 29.2719 -50.0239
lclavicle -3.37934e-015 -1.59028e-015
lhumerus -14.7564 -18.1359 84.3599
lradius 53.5764
lwrist 20.4659
lhand -23.9155 -12.3613
lfingers 7.12502
lthumb 2.55893 17.6031
rfemur -27.048 -9.48231 4.16894
rtibia 51.258
rfoot -21.5624 -10.6089
rtoes -12.4963
lfemur -32.1246 12.4126 -11.0138
ltibia 54.5473
lfoot -20.1135 0.954636
ltoes -12.7723
326
root 6.61176 15.5713 0.373247 -115.689 -85.3591 119.807
lowerback 19.2698 1.30415 1.63695
upperback 6.77045 1.46109 -1.89456
thorax -3.38198 0.56876 -3.24919
lowerneck -23.2986 13.597 11.9987
upperneck 25.992 17.5088 -8.50634
head 14.7406 7.55763 -1.7628
rclavicle 9.14409e-015 -7.95139e-016
rhumerus 47.6044 39.9818 -50.1013
rradius 116.019
rwrist -64.6035
rhand 3.39835 -22.309
rfingers 7.12502
rthumb 28.8411 -50.1
lclavicle 9.14409e-015 -7.95139e-016
lhumerus -15.3869 -17.9398 84.4549
lradius 53.5654
lwrist 20.452
lhand -24.0881 -12.8048
lfingers 7.12502
lthumb 2.39231 17.1615
rfemur -26.3072 -10.2898 3.18766
rtibia 51.1031
rfoot -21.6977 -10.2154
rtoes -12.7574
lfemur -31.6402 12.088 -11.8703
ltibia 54.3255
lfoot -20.2716 0.856245
ltoes -12.5244
